<?xml version="1.0" encoding="iso-8859-1"?>
<!-- Generator: Adobe Illustrator 19.0.0, SVG Export Plug-In . SVG Version: 6.00 Build 0)  -->
<svg version="1.1" id="Layer_1" xmlns="http://www.w3.org/2000/svg" xmlns:xlink="http://www.w3.org/1999/xlink" x="0px" y="0px"
	 viewBox="0 0 512 512" style="enable-background:new 0 0 512 512;" xml:space="preserve">
<g>
	<g>
		<path d="M479.536,58.794H32.464C14.564,58.794,0,73.358,0,91.258v329.483c0,17.9,14.564,32.464,32.464,32.464h447.072
			c17.9,0,32.464-14.564,32.464-32.464V91.258C512,73.358,497.436,58.794,479.536,58.794z M437.867,77.167L256,209.723
			L74.133,77.167H437.867z M57.569,434.832H32.464c-7.769,0-14.091-6.322-14.091-14.091V135.199l39.196,28.569V434.832z
			 M436.057,434.832H75.943V177.161L250.59,304.457c1.611,1.175,3.51,1.763,5.41,1.763c1.9,0,3.8-0.588,5.41-1.763l174.647-127.297
			V434.832z M493.627,420.741c0,7.769-6.322,14.091-14.091,14.091h-25.105V163.768l39.196-28.569V420.741z M493.627,112.464
			L256,285.665L18.373,112.464V91.258c0-7.769,6.322-14.091,14.091-14.091h10.476L250.59,228.515c1.612,1.175,3.51,1.763,5.41,1.763
			c1.9,0,3.798-0.588,5.41-1.763L469.059,77.167h10.476c7.769,0,14.091,6.322,14.091,14.091V112.464z"/>
	</g>
</g>
<g>
</g>
<g>
</g>
<g>
</g>
<g>
</g>
<g>
</g>
<g>
</g>
<g>
</g>
<g>
</g>
<g>
</g>
<g>
</g>
<g>
</g>
<g>
</g>
<g>
</g>
<g>
</g>
<g>
</g>
</svg>
